<svg width="63" height="37" viewBox="0 0 63 37" fill="none" xmlns="http://www.w3.org/2000/svg">
<path d="M44.7144 36.2953H33.2242C33.2242 32.5117 36.2803 29.4472 40.0534 29.4472H44.7314C50.9119 29.4472 56.0679 24.5165 56.1704 18.3189C56.2728 12.0014 51.168 6.84817 44.9022 6.84817C42.1705 6.84817 39.5412 7.84116 37.4924 9.63881L22.5364 23.1297C19.7364 25.6635 15.417 25.4239 12.8901 22.6161L32.7291 4.72524C32.7973 4.65676 32.8827 4.58828 32.951 4.5198L33.6681 3.92058C36.8607 1.38676 40.8217 0 44.9022 0C54.9241 0 63.0508 8.20069 62.9996 18.2504C62.9484 28.2658 54.685 36.2953 44.7144 36.2953Z" fill="#333333"/>
<path d="M18.0977 36.2953C8.07581 36.2953 -0.0509784 28.0946 0.000240785 18.0449C0.05146 8.02949 8.31483 0 18.3026 0H29.7928C29.7928 3.78362 26.7367 6.84817 22.9635 6.84817H18.2684C12.088 6.84817 6.93191 11.7789 6.82947 17.9765C6.72703 24.2939 11.8319 29.4472 18.0977 29.4472C20.8294 29.4472 23.4586 28.4542 25.5074 26.6565L40.4634 13.1656C43.2634 10.6318 47.5829 10.8715 50.1097 13.6792L29.383 32.3747H29.3318C26.1391 34.9086 22.1952 36.2953 18.0977 36.2953Z" fill="#333333"/>
</svg>
